<?xml version="1.0" encoding="UTF-8"?>
<svg version="1.1" xmlns="http://www.w3.org/2000/svg" width="512" height="512">
<path d="M0 0 C0.66402832 0.18191895 1.32805664 0.36383789 2.01220703 0.55126953 C12.30277963 3.41930209 21.64479732 7.94646496 31 13 C32.64548828 13.88558594 32.64548828 13.88558594 34.32421875 14.7890625 C45.88664983 21.27349888 55.40822198 29.96299757 65 39 C65.91458984 39.84111328 65.91458984 39.84111328 66.84765625 40.69921875 C68 42 68 42 68 44 C68.88558594 43.855625 69.77117187 43.71125 70.68359375 43.5625 C103.95585924 38.57685356 138.45177394 45.49968884 165.87890625 65.5546875 C194.97068872 88.34749829 214.28903726 117.89563045 219 155 C221.1195474 194.79194433 211.68979313 229.05426447 184.6875 259.125 C175.75117313 268.78724698 163.30436614 281.03536274 150 284 C150.00276538 285.36856754 150.00276538 285.36856754 150.00558662 286.76478291 C150.04980588 308.99190347 150.08287614 331.21901643 150.10362434 353.44617176 C150.11392538 364.19516901 150.12796328 374.94413686 150.15087891 385.69311523 C150.1708487 395.06478622 150.18372496 404.43643591 150.18817699 413.80812758 C150.19077829 418.76774496 150.19686801 423.72730139 150.21146011 428.68689919 C150.22510076 433.36127438 150.22920959 438.03556391 150.22621536 442.70995712 C150.22676264 444.41948984 150.23070127 446.12902561 150.23841095 447.83854103 C150.30347826 463.01929831 149.44022959 477.41302721 140 490 C139.29875 490.969375 138.5975 491.93875 137.875 492.9375 C130.69787061 501.24557099 119.66154816 506.87607167 108.86737061 508.45954823 C105.63846934 508.63713927 102.44451101 508.66732929 99.2109375 508.63491821 C97.99210373 508.64271817 96.77326996 508.65051812 95.51750183 508.65855443 C92.17379641 508.67491158 88.83151875 508.66921227 85.48790359 508.65362334 C81.8668073 508.64222539 78.24582821 508.65981399 74.62475586 508.67352295 C67.54676198 508.69567063 60.46903431 508.69099222 53.39103031 508.67645974 C47.63485099 508.66513395 41.87874588 508.66365099 36.12255859 508.66907883 C34.89024427 508.67022807 34.89024427 508.67022807 33.63303471 508.67140054 C31.96370313 508.67299928 30.29437158 508.67462035 28.62504005 508.6762635 C12.99865549 508.69049618 -2.62758204 508.67416733 -18.25394249 508.64726166 C-31.64072274 508.62492512 -45.02728616 508.62880595 -58.4140625 508.65185547 C-73.98732569 508.67865744 -89.56046025 508.68912311 -105.13374329 508.67379415 C-106.7966817 508.67220153 -108.45962014 508.67062967 -110.12255859 508.66907883 C-111.34961974 508.66792176 -111.34961974 508.66792176 -112.60146999 508.66674132 C-118.34583582 508.66243749 -124.09011955 508.66968235 -129.83447266 508.68147659 C-136.84200276 508.69554912 -143.84925309 508.69160245 -150.85675144 508.66507287 C-154.42712854 508.65199806 -157.99704044 508.6466725 -161.56741333 508.66331863 C-165.44884692 508.68114036 -169.32953095 508.65975736 -173.2109375 508.63491821 C-174.88008965 508.65164863 -174.88008965 508.65164863 -176.58296204 508.66871703 C-189.31598931 508.51148652 -200.62297145 503.58830652 -210 495 C-223.23692582 480.11402955 -224.31418347 463.44533096 -224.22705078 444.38964844 C-224.22648555 442.64405829 -224.22680541 440.89846768 -224.22793579 439.15287781 C-224.22850593 434.44915053 -224.21680688 429.74552677 -224.20278788 425.04182339 C-224.19022364 420.11311312 -224.18910555 415.18440008 -224.18673706 410.25567627 C-224.18053894 400.9381122 -224.16415085 391.62059548 -224.14403808 382.30305219 C-224.12162697 371.68871407 -224.11067258 361.0743736 -224.10064721 350.46001768 C-224.07978303 328.63998544 -224.04463971 306.81999571 -224 285 C-225.13467209 284.38742844 -225.13467209 284.38742844 -226.29226685 283.76248169 C-227.28394867 283.22485199 -228.27563049 282.68722229 -229.29736328 282.13330078 C-230.28068634 281.60116974 -231.2640094 281.0690387 -232.27713013 280.52078247 C-260.14095178 264.9582277 -279.69752158 236.39075867 -288.75 206.375 C-289.04825684 205.39104248 -289.04825684 205.39104248 -289.35253906 204.38720703 C-292.51288546 193.34767798 -293.39062004 182.45232911 -293.375 171 C-293.37445618 170.32257751 -293.37391235 169.64515503 -293.37335205 168.94720459 C-293.33046487 157.27399912 -292.27478242 146.24242275 -289 135 C-288.78569336 134.26152832 -288.57138672 133.52305664 -288.35058594 132.76220703 C-280.54244183 106.84303288 -264.55877798 84.30362799 -243 68 C-242.23558594 67.40832031 -241.47117188 66.81664063 -240.68359375 66.20703125 C-223.55412474 53.5410787 -203.90115153 46.37847323 -183 43 C-182.23042969 42.86851563 -181.46085937 42.73703125 -180.66796875 42.6015625 C-167.81534013 40.78302614 -154.73108478 41.92448108 -142 44 C-141.62875 43.14148437 -141.62875 43.14148437 -141.25 42.265625 C-130.09394549 22.04527619 -98.22471892 7.34249872 -77 1 C-52.24532341 -5.6116709 -24.85805109 -7.18751442 0 0 Z M-127 62 C-129.62327789 65.19355569 -131.86419449 68.46505638 -134 72 C-134.65355469 73.05574219 -135.30710938 74.11148438 -135.98046875 75.19921875 C-146.76497588 93.03649947 -151.87402985 111.65357966 -153.22949219 132.36401367 C-153.57608131 136.97880098 -154.03391255 140.24391347 -157 144 C-160.4390971 146.34483893 -162.3839551 147.01080781 -166.5625 146.9375 C-170.31727525 145.91347039 -172.2622111 144.7377889 -175 142 C-182.43149674 119.70550977 -169.73999197 88.57530102 -159.90307617 68.79418945 C-159.60506104 68.20210693 -159.3070459 67.61002441 -159 67 C-164.99544503 66.13460565 -170.5467243 65.9176572 -176.5625 66.625 C-177.33553467 66.71491211 -178.10856934 66.80482422 -178.9050293 66.89746094 C-206.72835541 70.54400077 -231.21854974 86.10867428 -248.6171875 107.703125 C-265.56571738 130.42166301 -271.93783366 158.54029762 -268.5390625 186.5 C-263.76434815 214.81124745 -247.87014142 239.77479113 -224.54638672 256.38256836 C-219.60159613 259.77364593 -214.4058964 262.60221812 -208.97387695 265.13720703 C-204.02754212 267.55888518 -203.38311364 268.92532955 -200 274 C-199.67 312.61 -199.34 351.22 -199 391 C-92.08 391 14.84 391 125 391 C125.33 353.05 125.66 315.1 126 276 C129.47162292 267.89954651 131.09008985 266.78503148 138.5625 263.3125 C163.06010709 251.22741072 180.84265306 229.43397275 190 204 C196.14800602 184.63281437 197.50204329 163.70086467 192 144 C191.6596875 142.7728125 191.319375 141.545625 190.96875 140.28125 C182.9972493 114.21228825 165.30445721 92.35437935 141.515625 78.98828125 C127.24859973 71.5481244 112.58597832 67.31812655 96.5625 66.25 C95.76803467 66.19295898 94.97356934 66.13591797 94.1550293 66.07714844 C89.28874283 65.79785677 89.28874283 65.79785677 85 68 C85.43570312 68.80179688 85.87140625 69.60359375 86.3203125 70.4296875 C93.74080115 84.59607493 98.40122099 99.23278107 101 115 C101.226875 116.299375 101.45375 117.59875 101.6875 118.9375 C102.06622494 123.01306908 102.17530324 127.09659208 102.25 131.1875 C102.27151123 131.8777124 102.29302246 132.5679248 102.31518555 133.27905273 C102.34373538 137.72259216 101.73836541 140.48016711 99 144 C95.5609029 146.34483893 93.6160449 147.01080781 89.4375 146.9375 C85.59746729 145.89021835 83.83471077 144.76431233 81 142 C80.14453125 139.328125 80.14453125 139.328125 79.8125 136.25 C79.67199219 135.09757812 79.53148437 133.94515625 79.38671875 132.7578125 C79.19529297 130.89769531 79.19529297 130.89769531 79 129 C75.39669826 95.52633712 61.73643056 66.47758198 35.41748047 44.68994141 C22.25309547 34.46021249 7.1344515 27.03866626 -9 23 C-10.22589844 22.68160156 -11.45179688 22.36320312 -12.71484375 22.03515625 C-56.06444183 12.32735152 -98.09269885 29.84642439 -127 62 Z M-199 415 C-202.80131556 460.26075886 -202.80131556 460.26075886 -194 476 C-188.41290912 480.88870452 -183.53301512 484.24293091 -175.91489124 484.26006222 C-174.90788506 484.26712781 -173.90087888 484.2741934 -172.86335737 484.2814731 C-171.76414966 484.27905802 -170.66494196 484.27664293 -169.53242493 484.27415466 C-167.77250561 484.28200968 -167.77250561 484.28200968 -165.97703236 484.29002339 C-162.72394376 484.30243031 -159.47098907 484.30586692 -156.21788132 484.30542648 C-152.70784097 484.30707582 -149.19783987 484.32014459 -145.68782043 484.33161926 C-138.01413665 484.35446021 -130.34048053 484.36238902 -122.66676736 484.36744571 C-117.87336774 484.37070404 -113.07997613 484.37722737 -108.28658104 484.3844471 C-95.00967448 484.4040125 -81.73277537 484.42041684 -68.45585346 484.42332363 C-67.60637265 484.4235112 -66.75689183 484.42369877 -65.88166917 484.42389202 C-64.15962899 484.42425827 -62.4375888 484.42462197 -60.71554861 484.42498314 C-59.86074814 484.42516595 -59.00594766 484.42534876 -58.12524414 484.42553711 C-57.2693977 484.42571766 -56.41355126 484.42589821 -55.53177007 484.42608423 C-41.66807458 484.42962487 -27.80453451 484.45664064 -13.94089291 484.494035 C0.29973826 484.53213813 14.54029236 484.55148126 28.78097564 484.55178314 C36.77376147 484.55236729 44.76636192 484.56083167 52.75909996 484.58978081 C59.56595756 484.61432169 66.37256218 484.62155951 73.17945208 484.60653328 C76.65019253 484.59937506 80.12043372 484.60017366 83.59111786 484.62294388 C87.36034885 484.64337378 91.12829198 484.63286798 94.89750671 484.61473083 C96.52958786 484.63453079 96.52958786 484.63453079 98.19464034 484.65473074 C105.98829402 484.56924393 112.61786694 482.81482574 118.61654299 477.59273332 C133.14542956 461.44948954 125 431.38634235 125 415 C18.08 415 -88.84 415 -199 415 Z " fill="#000000" transform="translate(293,4)"/>
<path d="M0 0 C3.41884518 2.10156185 5.70120074 4.10360223 7 8 C9.00605473 23.16004218 2.02699787 38.30638738 -5.05957031 51.26904297 C-5.88670515 52.79146923 -6.67688075 54.33385325 -7.4609375 55.87890625 C-13.77743962 68.12853897 -23.38041905 85.2536127 -35 93 C-39.18614674 93.60362041 -42.93436214 93.41698873 -46.875 91.875 C-50.4969474 88.67916406 -51.80772911 85.53816711 -52.40234375 80.78125 C-51.86564654 75.73733839 -49.79445001 73.18155906 -46.75 69.25 C-45.64215701 67.74619098 -44.5381142 66.23957645 -43.4375 64.73046875 C-42.58285156 63.56523682 -42.58285156 63.56523682 -41.7109375 62.37646484 C-30.48230179 46.78006929 -20.38460688 30.19889224 -17.54101562 10.92358398 C-16.8786232 7.01770648 -16.04118026 4.61386488 -13.0703125 2.05078125 C-8.28477734 -1.14566399 -5.56273185 -1.31997027 0 0 Z " fill="#000000" transform="translate(389,233)"/>
<path d="M0 0 C3.90791137 2.55781636 6.13947516 4.25026711 7.21484375 8.86328125 C7.47296254 10.3434521 7.71298921 11.82686008 7.9375 13.3125 C11.90982113 34.19254119 23.6819245 53.01991018 36.94140625 69.37109375 C40.85579251 74.36992098 42.78329038 77.50987969 42 84 C40.69876439 87.30313656 39.22272955 90.23259651 36.1328125 92.171875 C33.8461469 93.05973783 32.07299197 93.36448971 29.625 93.4375 C28.89539063 93.47746094 28.16578125 93.51742187 27.4140625 93.55859375 C21.19829481 92.12031741 17.26256999 86.12199472 13.75 81.1875 C13.28037842 80.53515381 12.81075684 79.88280762 12.3269043 79.21069336 C-1.49627813 59.77756603 -20.07712159 32.9912172 -17 8 C-15.42088796 4.21013111 -13.46675336 2.16672085 -10 0 C-6.14217025 -1.28594325 -3.95337324 -0.93808857 0 0 Z " fill="#000000" transform="translate(133,233)"/>
<path d="M0 0 C3.41884518 2.10156185 5.70120074 4.10360223 7 8 C7.11102371 10.44693033 7.16759745 12.86617357 7.17700195 15.3137207 C7.18357315 16.05554596 7.19014435 16.79737122 7.19691467 17.56167603 C7.2166234 20.01637882 7.2283046 22.47102052 7.23828125 24.92578125 C7.24235678 25.76504843 7.2464323 26.60431561 7.25063133 27.46901512 C7.27148137 31.91090015 7.28578789 36.35275437 7.29516602 40.79467773 C7.30623047 45.37800026 7.34063357 49.9608373 7.38033772 54.54398823 C7.40650475 58.07251375 7.41485789 61.60092357 7.41844749 65.12953758 C7.42331296 66.81880155 7.43492586 68.50806037 7.45348549 70.19722939 C7.47788051 72.56457448 7.47691187 74.93066292 7.4699707 77.2980957 C7.48278076 77.99181778 7.49559082 78.68553986 7.50878906 79.40028381 C7.45587428 84.36729 6.07124167 87.15420567 3 91 C0.01187638 93.34781141 -3.21911188 93.41825081 -6.96875 93.3203125 C-10.35429158 92.78643864 -12.44180448 91.19273902 -15 89 C-17.45141463 85.41887927 -17.28952398 81.74386833 -17.2746582 77.55688477 C-17.27976913 76.81330719 -17.28488007 76.06972961 -17.29014587 75.30361938 C-17.30402803 72.84946611 -17.30308619 70.39559409 -17.30078125 67.94140625 C-17.30466891 66.23274125 -17.30900372 64.52407721 -17.31376648 62.81541443 C-17.3212257 59.23522813 -17.32093956 55.65514045 -17.31567383 52.07495117 C-17.30987922 47.49049992 -17.32681128 42.90645267 -17.3500185 38.32206821 C-17.36476118 34.79357041 -17.36562683 31.2651698 -17.36250877 27.73664665 C-17.36302171 26.04658139 -17.3682542 24.35651065 -17.37832069 22.6664753 C-17.39067851 20.3015542 -17.3838979 17.9374186 -17.37231445 15.57250977 C-17.38378006 14.5288903 -17.38378006 14.5288903 -17.39547729 13.46418762 C-17.34868363 9.13471543 -16.60010266 6.46753838 -14 3 C-9.39645716 -1.02809998 -5.92712237 -1.40643582 0 0 Z " fill="#000000" transform="translate(261,233)"/>
</svg>
